<?xml version="1.0" encoding="UTF-8"?>
<!DOCTYPE svg PUBLIC "-//W3C//DTD SVG 1.1//EN" "http://www.w3.org/Graphics/SVG/1.1/DTD/svg11.dtd">
<!-- Creator: CorelDRAW X7 -->
<svg xmlns="http://www.w3.org/2000/svg" xml:space="preserve" width="120.149mm" height="86.0905mm" version="1.1" style="shape-rendering:geometricPrecision; text-rendering:geometricPrecision; image-rendering:optimizeQuality; fill-rule:evenodd; clip-rule:evenodd"
viewBox="0 0 4166 2985"
 xmlns:xlink="http://www.w3.org/1999/xlink">
 <defs>
  <style type="text/css">
   <![CDATA[
    .fil7 {fill:#FEFEFE}
    .fil16 {fill:#FEFEFE}
    .fil15 {fill:#F0F6FB}
    .fil0 {fill:#E8EDED}
    .fil9 {fill:#E7E7EE}
    .fil13 {fill:#D7545A}
    .fil5 {fill:#DCDCDB}
    .fil14 {fill:#AAC0B6}
    .fil6 {fill:#90D2EA}
    .fil11 {fill:#62BE9D}
    .fil4 {fill:#3EAAE1}
    .fil3 {fill:#454555}
    .fil12 {fill:#2795CD}
    .fil2 {fill:#1D9C84}
    .fil10 {fill:#1C81AD}
    .fil8 {fill:#237060}
    .fil1 {fill:#0E8366}
    .fil17 {fill:#009B4C}
    .fil18 {fill:#FEFEFE;fill-rule:nonzero}
   ]]>
  </style>
 </defs>
 <g id="Layer_x0020_1">
  <metadata id="CorelCorpID_0Corel-Layer"/>
  <path class="fil0" d="M963 1679c19,11 19,29 0,40l-640 372c-19,11 -50,11 -69,0l-239 -139c-20,-11 -20,-29 -1,-40l640 -372c20,-11 51,-11 70,0l239 139z"/>
  <path class="fil1" d="M918 1044c1,-1 3,-1 4,-2l2 -1 3 0c1,0 2,0 3,-1l2 0c1,0 2,0 4,0l0 0c2,0 3,0 5,1l1 0c1,0 2,1 3,1l1 0c1,1 3,1 4,2l-235 -136 0 0c-1,-1 -2,-1 -3,-2l0 0 -1 0 -2 -1 -2 0 -1 0 0 -1c-1,0 -3,0 -4,0l0 0 -1 0c-1,0 -2,0 -3,0l-1 0 -1 0 -2 0 -1 1 -3 0 -1 0 -2 1c-1,0 -2,1 -4,1l-1 1 -1 0c-2,1 -5,3 -7,4l-606 350c-4,2 -8,5 -11,8 -2,1 -3,2 -4,3 -2,1 -3,2 -5,4l-2 2 -2 3 -3 2c-1,2 -3,4 -4,6l-2 2 -1 1 -1 2c-1,2 -2,3 -4,5 -1,2 -2,3 -3,5l0 1 0 0c-1,1 -2,3 -2,4 -1,2 -2,3 -3,5 -1,2 -1,3 -2,5l0 0 0 0c-1,2 -2,4 -2,5 -1,2 -2,4 -2,6l-1 3 -1 1 0 2c-1,2 -1,4 -2,7 0,1 0,2 -1,4l0 2 0 2c-1,4 -1,8 -1,11l1 456c0,18 7,31 17,37l235 137c-11,-6 -17,-20 -17,-38l-2 -456c0,-4 1,-8 1,-13l1 -2c1,-4 2,-9 3,-13l0 -1c2,-5 3,-9 5,-14l0 0c2,-5 5,-9 7,-14l1 0c2,-5 5,-9 8,-13l1 -1c2,-4 5,-7 8,-10l2 -2c2,-3 5,-5 8,-7 1,-1 2,-2 3,-3 3,-3 7,-6 11,-8l606 -350c3,-1 5,-2 7,-3l3 -1z"/>
  <path class="fil2" d="M908 1048c32,-19 59,-4 59,34l1 455c0,37 -26,83 -58,102l-606 350c-33,18 -59,3 -59,-34l-2 -456c0,-37 27,-82 59,-101l606 -350z"/>
  <polygon class="fil3" points="567,1120 528,1098 528,998 567,1021 "/>
  <polygon class="fil3" points="330,1257 291,1234 291,1081 330,1104 "/>
  <polygon class="fil3" points="330,1104 291,1081 575,917 614,940 "/>
  <polygon class="fil3" points="614,940 614,1093 567,1120 567,1021 377,1130 377,1230 330,1257 330,1104 "/>
  <path class="fil0" d="M4123 2188c30,17 30,44 1,61l-984 572c-29,17 -77,17 -107,0l-606 -350c-30,-17 -30,-45 -1,-62l984 -572c29,-17 77,-17 107,0l606 351z"/>
  <path class="fil0" d="M3649 1852c52,30 52,78 0,108l-1724 1002c-52,30 -135,30 -187,0l-1063 -614c-52,-29 -53,-78 -1,-108l1724 -1002c52,-30 135,-30 187,0l1064 614z"/>
  <path class="fil0" d="M3695 1547c54,31 54,81 1,111l-1766 1027c-52,30 -138,30 -191,0l-1089 -629c-53,-31 -54,-80 -1,-111l1766 -1026c53,-31 138,-31 191,0l1089 628z"/>
  <path class="fil3" d="M3735 1607c0,2 0,3 0,5 -1,1 -1,2 -1,3 -1,1 -1,3 -1,4 -1,1 -1,2 -2,3 0,2 -1,3 -2,5 0,1 -1,2 -2,3 -1,1 -2,3 -3,4l-2 3c-2,2 -4,4 -6,6l-2 2c-1,2 -3,3 -4,4 -1,1 -3,2 -4,3 -2,1 -3,2 -5,3 -2,1 -3,2 -5,3l-1766 1027c-6,3 -12,6 -19,9 -1,0 -3,1 -5,2 -4,1 -8,2 -13,3 -4,2 -9,3 -13,4 -6,1 -11,2 -17,3 -1,0 -2,0 -4,0 -7,1 -15,1 -22,1 -2,0 -3,0 -4,0 -7,0 -15,0 -22,-1 -2,0 -3,0 -4,0 -7,-1 -14,-2 -22,-4 -1,0 -2,-1 -3,-1 -7,-1 -13,-3 -19,-6 -1,0 -3,0 -4,-1 -7,-3 -14,-6 -20,-9l-1089 -629c-27,-16 -40,-36 -40,-56l-1 133c0,20 14,41 40,56l1089 629c7,3 13,6 20,9l1 0c1,1 2,1 3,2 4,1 8,2 12,4 3,0 5,1 7,1 1,1 3,1 4,1 1,0 2,1 4,1 4,1 8,2 13,2 2,1 3,1 5,1 1,0 2,0 3,0 2,1 3,1 5,1 5,0 9,1 13,1 2,0 3,0 5,0 1,0 2,0 3,0 2,0 4,0 6,0 5,-1 10,-1 15,-1l2 -1c1,0 3,0 4,0 4,-1 8,-1 12,-2 1,0 3,-1 4,-1 5,-1 10,-2 14,-3 2,-1 5,-1 7,-2 2,-1 4,-2 6,-2 2,-1 3,-2 5,-2 7,-3 13,-6 19,-9l1766 -1026 1 -1c2,-1 3,-2 4,-3 1,-1 3,-2 5,-3 1,-1 2,-2 3,-3 2,-1 3,-2 5,-3l0 -1 2 -2c2,-2 4,-4 6,-6l1 -1 1 -2c1,-1 2,-3 3,-4l1 -2 1 -1c1,-2 1,-3 2,-4l1 -3 0 -1c1,-1 1,-2 1,-4l1 -3 0 0c0,-2 1,-3 1,-5l0 -2 0 -2 0 -133c0,2 0,3 0,4z"/>
  <path class="fil4" d="M3535 1567c17,10 17,26 0,36l-1481 860c-17,10 -45,10 -62,1l-981 -567c-17,-10 -17,-26 0,-36l1481 -860c17,-10 45,-10 62,0l981 566z"/>
  <path class="fil5" d="M1456 2283c19,11 19,29 1,39l-25 15c-18,11 -49,11 -68,0l-149 -86c-19,-11 -19,-29 0,-40l25 -14c18,-11 49,-11 67,0l149 86z"/>
  <path class="fil6" d="M3110 411c26,15 47,52 47,81l-4 1173c0,30 -21,42 -47,27l-701 -405c-26,-15 -47,-51 -47,-81l4 -1173c0,-30 21,-41 47,-27l701 405z"/>
  <path class="fil7" d="M2804 685c0,13 1,35 7,56 1,8 2,20 4,35 -18,6 -36,2 -53,-8 -27,-16 -51,-45 -62,-62 3,-19 5,-33 5,-33l0 -1c3,-12 4,-27 4,-38 7,10 13,18 20,24 0,1 12,13 28,23 8,4 17,8 25,8 7,0 15,-1 22,-4z"/>
  <path class="fil8" d="M2516 725c-2,15 -4,32 -6,47 1,-15 3,-32 6,-47z"/>
  <path class="fil9" d="M2693 664l12 8c0,1 -2,15 -5,34 -1,6 -2,11 -3,17 -5,25 23,208 26,229 0,2 0,2 0,2l-220 -127c0,-1 3,-25 7,-55 2,-15 4,-32 6,-47 4,-29 8,-55 10,-60 5,-12 119,10 125,12l42 -13z"/>
  <path class="fil7" d="M2648 415c3,2 6,5 9,8 1,5 2,8 2,8 0,3 6,51 9,60 0,1 0,2 1,2 1,1 3,-4 4,-8 0,16 0,32 -7,30l-1 -1c-1,-1 -3,-2 -4,-3 -17,-18 -43,-94 -22,-97 3,-1 6,0 9,1z"/>
  <path class="fil7" d="M2866 541c3,2 6,5 9,9 21,28 -5,73 -22,72 -2,0 -3,-1 -4,-1 -1,-1 -2,-2 -3,-3 -3,-4 -4,-11 -5,-19l2 2 0 0c4,2 4,-25 9,-44 1,-3 3,-9 4,-17 3,-1 7,-1 10,1z"/>
  <path class="fil7" d="M2806 418c2,1 4,3 5,4 12,12 22,35 26,59 4,24 0,93 0,98 0,6 1,15 4,20 1,8 2,15 5,19 -3,19 -7,33 -9,39 -3,11 -17,22 -33,28 -7,3 -15,4 -22,4 -8,0 -17,-4 -25,-8 -16,-10 -28,-22 -28,-23 -7,-6 -13,-14 -20,-24 -17,-24 -31,-56 -35,-72 -2,-8 -5,-25 -8,-47 7,2 7,-14 7,-30 0,-3 1,-5 1,-5 0,-1 0,-19 0,-30 0,-10 -10,-60 -1,-83 6,-15 15,-16 29,-8 7,4 16,11 27,22 6,5 13,9 19,13 11,7 23,11 33,14 10,4 19,6 25,10z"/>
  <path class="fil10" d="M2751 298c32,18 67,45 91,77 13,23 12,51 19,68 6,14 1,67 -5,97 -1,8 -3,14 -4,17 -5,19 -5,46 -9,44l-2 -2c-3,-5 -4,-14 -4,-20 0,-5 4,-74 0,-98 -4,-24 -14,-47 -26,-59 -1,-1 -3,-3 -5,-4 -6,-4 -15,-6 -25,-10 -10,-3 -22,-7 -33,-14 -6,-4 -13,-8 -19,-13 -11,-11 -20,-18 -27,-22 -14,-8 -23,-7 -29,8 -9,23 1,73 1,83 0,11 0,29 0,30 0,0 -1,2 -1,5 -1,4 -3,9 -4,8 -1,0 -1,-1 -1,-2 -3,-9 -9,-57 -9,-60 0,0 -1,-3 -2,-8 -5,-16 -14,-58 -6,-95 5,-10 8,-35 22,-52 8,-9 41,0 78,22z"/>
  <path class="fil10" d="M2818 793c5,30 -24,180 -28,198l-26 -15 -17 -10 -24 -14c-3,-21 -31,-204 -26,-229 1,-6 2,-11 3,-17 11,17 35,46 62,62 17,10 35,14 53,8 1,5 2,11 3,17z"/>
  <path class="fil9" d="M2821 738l43 62c6,5 119,114 124,132 6,19 21,179 22,188l-220 -127c0,0 0,-1 0,-2 4,-18 33,-168 28,-198 -1,-6 -2,-12 -3,-17 -2,-15 -3,-27 -4,-35 -1,-5 -1,-8 -1,-8l11 5z"/>
  <polygon class="fil4" points="2623,1251 2623,1281 2512,1217 2512,1187 "/>
  <polygon class="fil4" points="2748,1195 2748,1225 2512,1089 2512,1059 "/>
  <polygon class="fil4" points="2909,1167 2909,1197 2513,968 2513,938 "/>
  <polygon class="fil4" points="2682,1211 2682,1241 2512,1143 2512,1112 "/>
  <polygon class="fil4" points="2909,1227 2909,1257 2512,1028 2512,998 "/>
  <polygon class="fil4" points="2764,1332 2764,1362 2653,1298 2653,1268 "/>
  <polygon class="fil4" points="2906,1414 2906,1444 2794,1380 2794,1350 "/>
  <path class="fil7" d="M1939 1892c95,55 95,143 1,198 -95,55 -248,55 -343,0 -96,-55 -96,-143 -2,-198 95,-55 249,-55 344,0z"/>
  <polygon class="fil11" points="1911,1971 1911,2017 1659,2017 1659,1935 1739,1935 1740,1971 "/>
  <path class="fil12" d="M2622 1706c13,7 13,19 0,27l-345 201c-13,7 -34,7 -47,0l-348 -201c-13,-8 -13,-20 0,-27l346 -201c12,-8 33,-8 46,0l348 201z"/>
  <path class="fil12" d="M2721 1779c-13,-7 -34,-7 -47,0l-346 201c-12,8 -12,20 1,27l256 148 392 -228 -256 -148z"/>
  <path class="fil12" d="M2157 1427l-200 -115 -392 228 200 115c13,8 34,8 46,0l346 -201c13,-7 13,-19 0,-27z"/>
  <path class="fil6" d="M2637 1639c14,8 14,21 1,28l-360 210c-14,7 -36,7 -49,0l-362 -210c-14,-7 -14,-20 -1,-28l361 -209c13,-8 35,-8 48,0l362 209z"/>
  <path class="fil13" d="M2446 1225l-1 1c-1,2 -3,4 -5,6l-2 2c-1,2 -3,3 -4,5l-3 2c-1,1 -2,2 -3,3 -1,0 -2,1 -3,2 -1,1 -2,2 -3,3 -1,0 -2,1 -3,2 -1,1 -3,2 -4,2 -1,1 -2,2 -3,3 -1,1 -3,1 -4,2 -2,1 -3,2 -5,3 -3,2 -6,4 -10,5 -1,1 -2,1 -2,2 -3,1 -6,2 -8,4l-3 1c-3,1 -7,3 -10,4l-2 1c-3,1 -6,2 -10,3 -1,0 -2,1 -3,1 -2,1 -4,1 -6,2 -1,0 -2,1 -4,1 -2,0 -3,1 -5,1 -2,1 -3,1 -5,2 -1,0 -3,0 -5,1 -1,0 -3,0 -4,1 -2,0 -4,0 -6,1 -1,0 -3,0 -4,1 -4,0 -8,1 -12,2l-2 0c-3,0 -7,1 -10,1 -2,0 -3,0 -4,0 -3,1 -5,1 -7,1 -2,0 -3,0 -5,0 -2,0 -4,1 -7,1 -1,0 -2,0 -4,0 -2,0 -4,0 -6,0 -1,0 -3,0 -4,0 -2,0 -5,0 -7,0 -1,0 -2,0 -4,0 -2,0 -4,0 -6,0 -1,0 -2,0 -4,-1 -2,0 -4,0 -6,0 -2,0 -3,0 -4,0 -3,0 -5,-1 -8,-1l-2 0c-4,-1 -7,-1 -10,-2l-2 0c-3,0 -6,-1 -9,-1 -1,0 -2,-1 -3,-1 -2,0 -5,-1 -7,-1 -1,0 -2,-1 -3,-1 -2,0 -5,-1 -7,-1 -2,-1 -3,-1 -4,-1 -2,-1 -4,-1 -7,-2 -1,0 -2,-1 -3,-1 -3,-1 -7,-2 -10,-3l-2 -1c-4,-1 -7,-2 -11,-4 -2,0 -3,-1 -4,-2 -2,0 -3,-1 -4,-1 -2,-1 -3,-2 -5,-2 -1,-1 -2,-1 -3,-2 -2,-1 -4,-1 -5,-2l-3 -2c-3,-1 -5,-2 -8,-4 -18,-11 -33,-23 -43,-36l-19 0 -1 364c0,31 21,63 62,87 3,1 5,2 8,4l2 1c2,1 4,2 6,3 1,0 2,1 3,1 2,1 3,2 5,2 1,1 2,1 3,2 1,0 3,1 4,1l1 1c3,1 7,2 11,4l2 0c3,1 6,2 10,3l1 1 2 0c2,1 5,2 7,2 1,0 2,1 4,1 2,1 4,1 7,2l2 0 1 0c2,1 4,1 7,2 1,0 2,0 3,0 3,1 6,1 9,2l1 0 0 0c4,0 7,1 11,1l2 1c3,0 5,0 8,0l0 0c1,0 2,0 3,1 3,0 5,0 7,0 1,0 3,0 4,0 2,0 4,0 6,0l1 0c1,0 2,0 3,0 2,0 4,1 7,0 1,0 3,0 4,0 2,0 4,0 6,0l1 0c1,0 2,0 3,0 3,0 5,0 7,0 2,0 3,0 5,-1 2,0 4,0 6,0l3 0 1 0c4,-1 7,-1 11,-2l2 0c4,-1 8,-1 12,-2l1 0c1,0 2,0 3,-1 2,0 4,0 5,-1 2,0 3,0 5,-1 2,0 3,-1 5,-1 2,0 3,-1 5,-1 1,-1 3,-1 5,-1 1,-1 3,-1 4,-2 2,0 4,-1 5,-1l3 -1 1 -1c3,-1 6,-2 9,-3l2 0c4,-2 7,-3 11,-5l3 -1c2,-1 5,-2 7,-4 1,0 2,-1 3,-1 4,-2 7,-3 10,-5l3 -2 2 -1c1,-1 2,-2 4,-3 1,0 2,-1 3,-2 1,-1 2,-2 4,-3 1,0 2,-1 3,-2 1,-1 2,-2 3,-2 1,-1 2,-2 3,-3 1,-1 2,-2 3,-3l1 -1 1 -1c2,-1 4,-3 5,-4l2 -2c2,-2 3,-4 5,-6l0 -1 1 -1c1,-2 3,-3 3,-4l2 -3c1,-1 2,-2 2,-3l1 -1 1 -2c0,-1 1,-2 1,-3l2 -3c0,-1 0,-2 1,-3l0 -1 1 -2c0,-1 1,-2 1,-3l1 -2c0,-2 0,-3 1,-4l0 -1 0 -1c0,-1 0,-2 1,-4l0 -2c0,-1 0,-2 0,-4l0 -1 0 -2 1 -365 -18 0z"/>
  <path class="fil0" d="M2042 1288c0,32 20,63 62,87 58,34 142,44 215,30l-1 187c-73,13 -156,3 -214,-30 -42,-24 -63,-56 -63,-87l1 -187z"/>
  <path class="fil2" d="M2402 1088c83,48 83,125 1,173 -82,48 -216,48 -299,0 -82,-48 -83,-125 -1,-173 83,-48 216,-48 299,0z"/>
  <path class="fil14" d="M2464 1133c0,1 0,2 0,3l0 3c0,1 -1,2 -1,3l0 3c-1,1 -1,2 -1,3l-1 2c0,2 -1,3 -1,4l-1 2c0,1 -1,2 -1,3l-2 3c0,1 -1,2 -1,3l-2 3c0,1 -1,2 -2,4l-1 2c-1,1 -2,3 -3,4l-2 2c-1,2 -3,4 -5,6l-2 2c-1,1 -3,3 -4,4l-3 3c-1,1 -2,1 -3,2 -1,1 -2,2 -3,3 -1,1 -2,1 -3,2 -1,1 -2,2 -3,3 -1,1 -3,1 -4,2 -1,1 -2,2 -3,2 -1,1 -3,2 -4,3 -2,1 -3,2 -5,3 -3,2 -6,3 -10,5 -1,1 -2,1 -2,2 -3,1 -6,2 -8,3l-3 1c-3,2 -7,3 -10,5l-2 0c-3,2 -6,3 -10,4 -1,0 -2,0 -3,1 -2,0 -4,1 -6,1 -1,1 -2,1 -4,2 -2,0 -3,1 -5,1 -2,1 -3,1 -5,1 -1,1 -3,1 -5,1 -1,1 -3,1 -4,1 -2,1 -4,1 -6,2 -1,0 -3,0 -4,0 -4,1 -8,2 -12,2l-2 0c-3,1 -7,1 -10,2 -2,0 -3,0 -4,0 -3,0 -5,1 -7,1 -2,0 -3,0 -5,0 -2,0 -4,0 -7,0 -1,0 -2,0 -4,1 -2,0 -4,0 -6,0 -1,0 -3,0 -4,0 -2,0 -5,0 -7,0 -1,0 -2,0 -4,0 -2,0 -4,-1 -6,-1 -1,0 -2,0 -4,0 -2,0 -4,0 -6,0 -2,0 -3,0 -4,-1 -3,0 -5,0 -8,0l-2 -1c-4,0 -7,0 -10,-1l-2 0c-3,0 -6,-1 -9,-1 -1,-1 -2,-1 -3,-1 -2,0 -5,-1 -7,-1 -1,-1 -2,-1 -3,-1 -2,-1 -5,-1 -7,-2 -2,0 -3,0 -4,-1 -2,0 -4,-1 -7,-1 -1,-1 -2,-1 -3,-1 -3,-1 -7,-2 -10,-3l-2 -1c-4,-1 -7,-3 -11,-4 -2,-1 -3,-1 -4,-2 -2,0 -3,-1 -4,-1 -2,-1 -3,-2 -5,-3 -1,0 -2,-1 -3,-1 -2,-1 -4,-2 -5,-3l-3 -1c-3,-1 -5,-3 -8,-4 -41,-24 -62,-56 -62,-87l-1 101c0,31 21,63 62,87 3,1 5,3 8,4l2 2c2,0 4,1 6,2 1,1 2,1 3,2 2,0 3,1 5,2 1,0 2,1 3,1 1,1 3,1 4,2l1 0c3,1 7,3 11,4l2 1c3,1 6,2 10,3l1 0 2 1c2,0 5,1 7,2 1,0 2,0 4,0 2,1 4,2 7,2l2 1 1 0c2,0 4,1 7,1 1,0 2,1 3,1 3,0 6,1 9,1l1 0 0 0c4,1 7,1 11,2l2 0c3,0 5,0 8,1l0 0c1,0 2,0 3,0 3,0 5,0 7,0 1,0 3,0 4,0 2,1 4,1 6,1l1 0c1,0 2,0 3,0 2,0 4,0 7,0 1,0 3,0 4,0 2,0 4,0 6,0l1 0c1,0 2,0 3,0 3,-1 5,-1 7,-1 2,0 3,0 5,0 2,0 4,-1 6,-1l3 0 1 0c4,0 7,-1 11,-1l2 -1c4,0 8,-1 12,-1l1 -1c1,0 2,0 3,0 2,-1 4,-1 5,-1 2,-1 3,-1 5,-1 2,-1 3,-1 5,-2 2,0 3,0 5,-1 1,0 3,-1 5,-1 1,-1 3,-1 4,-1 2,-1 4,-1 5,-2l3 -1 1 0c3,-1 6,-2 9,-3l2 -1c4,-1 7,-3 11,-4l3 -2c2,-1 5,-2 7,-3 1,-1 2,-1 3,-2 4,-1 7,-3 10,-5l3 -1 2 -2c1,-1 2,-2 4,-2 1,-1 2,-2 3,-3 1,0 2,-1 4,-2 1,-1 2,-2 3,-3 1,0 2,-1 3,-2 1,-1 2,-2 3,-3 1,0 2,-1 3,-2l1 -1 1 -1c2,-2 4,-3 5,-5l2 -2c2,-2 3,-4 5,-6l0 0 1 -2c1,-1 3,-3 3,-4l2 -2c1,-1 2,-3 2,-4l1 -1 1 -2c0,-1 1,-2 1,-3l2 -2c0,-1 0,-2 1,-4l0 -1 1 -1c0,-1 1,-2 1,-3l1 -3c0,-1 0,-2 1,-3l0 -2 0 -1c0,-1 0,-2 1,-3l0 -3c0,-1 0,-2 0,-3l0 -2 0 -2 1 -101c0,1 0,2 0,4z"/>
  <path class="fil15" d="M2402 1042c83,48 83,125 1,173 -82,48 -216,48 -299,0 -82,-48 -83,-125 -1,-173 83,-48 216,-48 299,0z"/>
  <path class="fil4" d="M4143 2096l-546 -315 -1102 626 558 322c30,17 78,17 107,0l984 -571c29,-17 29,-45 -1,-62z"/>
  <path class="fil12" d="M3693 2036c71,41 71,107 1,148 -70,40 -184,40 -254,0 -71,-41 -71,-107 -1,-148 70,-41 184,-41 254,0z"/>
  <path class="fil0" d="M3614 1829l-89 -1 1 149 87 1c41,0 74,-33 75,-74 0,-42 -33,-75 -74,-75z"/>
  <path class="fil2" d="M3367 1901c-1,42 32,75 74,75l85 1c14,-21 22,-46 23,-73 0,-28 -9,-54 -24,-76l-83 -1c-42,0 -75,33 -75,74z"/>
  <path class="fil12" d="M3342 2234c70,41 71,107 0,147 -70,41 -184,41 -254,0 -71,-40 -71,-106 -1,-147 70,-41 184,-41 255,0z"/>
  <path class="fil0" d="M3262 2026l-89 0 0 0 1 149 87 0c41,1 75,-32 75,-74 0,-41 -33,-74 -74,-75z"/>
  <path class="fil13" d="M3015 2099c0,41 33,75 74,75l85 1c14,-21 23,-46 23,-73 0,-28 -9,-55 -24,-76l-83 -1c-41,0 -75,33 -75,74z"/>
  <polygon class="fil6" points="2978,2505 2942,2527 2737,2408 2773,2387 "/>
  <polygon class="fil6" points="3159,2542 3122,2563 2795,2374 2832,2353 "/>
  <path class="fil6" d="M1051 1024l1 384c1,16 17,25 30,17l548 -316c6,-3 10,-10 10,-17l-1 -384c0,-15 -17,-25 -30,-17l-548 316c-6,3 -10,10 -10,17z"/>
  <path class="fil4" d="M1134 1063l1 384c0,15 16,25 30,17l547 -316c6,-4 10,-10 10,-17l-1 -385c0,-15 -16,-24 -30,-17l-547 316c-6,4 -10,11 -10,18z"/>
  <path class="fil6" d="M1722 956l-65 37c-2,1 -3,1 -4,0l-39 -59c-5,-8 -14,-8 -24,-3 -1,1 -3,2 -4,2 -11,8 -20,22 -23,37l-33 150c-1,4 -3,5 -4,6 -2,1 -4,1 -4,-1l-6 -29c-2,-13 -13,-17 -26,-10 -14,8 -24,23 -27,39 -1,3 -3,5 -4,6 -2,1 -4,1 -5,-1l-26 -72c-4,-11 -15,-13 -26,-6 -13,7 -23,21 -26,36l-34 126c-1,3 -3,5 -4,6 -1,0 -3,1 -4,-2l-9 -32c-3,-12 -13,-16 -25,-9 -13,7 -24,22 -27,37l-6 24c-1,3 -3,4 -4,5 -2,1 -3,1 -4,0l-6 -9c-5,-7 -14,-8 -24,-2l-95 54 1 27 94 -55c1,0 3,0 4,1l5 9c5,7 14,8 25,2l2 -1c11,-8 20,-21 24,-35l6 -24c0,-3 2,-5 4,-6 1,0 3,-1 4,2l9 32c3,12 13,16 25,9 13,-7 23,-21 27,-37l34 -126c0,-3 3,-5 4,-5 1,-1 3,-2 4,1l26 72c4,11 15,13 27,6 13,-8 23,-23 26,-39 1,-3 3,-5 4,-6 2,-1 4,-1 4,2l6 28c2,13 13,18 26,11 14,-8 24,-23 28,-39l32 -151c1,-3 3,-5 4,-5 2,-1 3,-2 4,0l40 59c5,7 14,8 24,2l65 -37 0 -27z"/>
  <path class="fil1" d="M1921 345c0,-3 1,-6 1,-10 1,-4 1,-7 2,-11 1,-3 1,-5 2,-8 0,-3 1,-5 1,-7 1,-4 2,-7 3,-11 1,-2 1,-4 2,-5 1,-4 2,-8 4,-12 0,-1 1,-3 1,-5 2,-5 5,-10 7,-15l1 -2c2,-5 4,-9 6,-14 1,-1 2,-3 2,-4 3,-5 5,-9 7,-13l2 -3c3,-5 6,-9 9,-14 1,-2 2,-3 2,-4 3,-4 5,-7 8,-11 1,-1 2,-3 3,-5 3,-3 5,-5 7,-8 2,-2 4,-5 5,-7 2,-2 4,-4 6,-6 3,-4 6,-7 9,-10 2,-2 4,-4 7,-6 1,-2 3,-3 4,-5 3,-2 6,-5 8,-7 2,-1 4,-3 5,-4 3,-2 6,-4 9,-7 2,-1 3,-2 5,-3 4,-3 9,-6 13,-8 5,-3 9,-5 13,-7 1,-1 3,-1 4,-2 4,-2 8,-3 12,-5l1 0c3,-1 7,-2 10,-3 2,0 4,-1 6,-1 3,-1 5,-1 8,-1 1,0 3,-1 4,-1 3,0 6,0 9,0l2 0c4,0 7,1 11,1l2 1c3,1 6,1 8,2l3 1c3,1 6,3 9,5l-39 -23 -1 0c-2,-2 -4,-3 -7,-4l-1 0 -3 -1c-1,-1 -2,-1 -3,-2 -2,0 -3,0 -4,-1l-3 0 -1 0c-3,-1 -6,-1 -9,-1l-1 0 -2 0c-2,-1 -4,-1 -6,0l-3 0c-1,0 -3,0 -4,0 -1,0 -3,0 -4,1 -1,0 -2,0 -4,0 -2,1 -4,1 -5,2 -2,0 -3,0 -4,0 -2,1 -4,2 -7,3l-1 0c-3,1 -6,2 -8,3 -2,1 -3,1 -4,2 -1,0 -2,1 -3,1 -5,2 -9,4 -13,7 -5,3 -10,6 -14,9 -2,1 -3,2 -4,3 -3,2 -6,4 -9,7 -2,1 -4,2 -5,4 -3,2 -6,4 -8,7 -2,1 -4,3 -5,4 -1,1 -2,2 -3,3 -1,1 -2,2 -3,3 -3,4 -7,7 -10,10 -1,2 -2,3 -3,4 -1,1 -1,2 -2,3 -2,2 -4,4 -6,6 -1,2 -2,3 -3,5 -1,1 -2,2 -3,4 -2,1 -3,3 -4,5 -1,1 -2,2 -3,4 -1,2 -3,4 -4,6 -1,2 -2,3 -3,4l-1 2c-3,4 -5,8 -8,12l0 1 -1 2c-2,3 -4,6 -5,9 -1,1 -2,3 -2,4 -1,2 -2,3 -3,5 0,1 -1,2 -1,3 -2,4 -4,7 -5,10l-1 2 0 1c-2,4 -4,8 -5,13l-1 2c-1,1 -1,3 -2,5 -1,2 -1,4 -2,6 -1,2 -1,3 -2,5 0,2 -1,4 -2,6 0,1 0,2 -1,4 0,2 -1,4 -1,6 -1,3 -2,5 -2,7l-1 3c0,2 0,3 -1,5 0,4 -1,8 -2,12 0,1 0,2 0,3 0,2 -1,5 -1,7 0,2 0,3 0,5 -1,5 -1,11 -1,16 0,28 6,51 17,68 7,10 15,18 25,23l38 23c-25,-15 -41,-47 -41,-92 0,-5 0,-10 0,-16 1,-1 1,-3 1,-5z"/>
  <path class="fil2" d="M2062 120c79,-46 143,-9 144,81 0,91 -64,201 -143,247 -79,46 -143,9 -143,-82 0,-90 63,-201 142,-246z"/>
  <path class="fil7" d="M2093 245l-1 -32 -51 30 0 31 52 -29zm-22 -30l30 -17 0 115 -12 6 0 18 -18 10 0 32 -8 13 0 -40 -17 10 0 -17 -12 6 -1 -114 30 -17 0 -16 -18 10 0 -19 44 -25 0 19 -18 10 0 16z"/>
  <path class="fil1" d="M1921 832c0,-4 1,-7 1,-11 1,-3 1,-7 2,-11 1,-3 1,-5 2,-8 0,-2 1,-5 1,-7 1,-4 2,-7 3,-10 1,-2 1,-4 2,-6 1,-4 2,-8 4,-12 0,-1 1,-3 1,-4 2,-6 5,-11 7,-16l1 -2c2,-5 4,-9 6,-14 1,-1 2,-3 2,-4 3,-4 5,-9 7,-13l2 -2c3,-5 6,-10 9,-15 1,-1 2,-3 2,-4 3,-4 5,-7 8,-10 1,-2 2,-4 3,-6 3,-3 5,-5 7,-8 2,-2 4,-5 5,-7 2,-2 4,-4 6,-6 3,-3 6,-7 9,-10 2,-2 4,-4 7,-6 1,-2 3,-3 4,-5 3,-2 6,-4 8,-7 2,-1 4,-2 5,-4 3,-2 6,-4 9,-6 2,-2 3,-3 5,-4 4,-3 9,-6 13,-8 5,-3 9,-5 13,-7 1,-1 3,-1 4,-2 4,-1 8,-3 12,-5l1 0c3,-1 7,-2 10,-3 2,0 4,-1 6,-1 3,0 5,-1 8,-1 1,0 3,0 4,-1 3,0 6,0 9,0l2 0c4,0 7,1 11,2l2 0c3,1 6,2 8,2l3 1c3,2 6,3 9,5l-39 -23 -1 0c-2,-1 -4,-3 -7,-4l-1 0 -3 -1c-1,0 -2,-1 -3,-1 -2,-1 -3,-1 -4,-1l-3 -1 -1 0c-3,-1 -6,-1 -9,-1l-1 0 -2 0c-2,0 -4,0 -6,0l-3 0c-1,0 -3,0 -4,0 -1,1 -3,1 -4,1 -1,0 -2,0 -4,1 -2,0 -4,0 -5,1 -2,0 -3,0 -4,0 -2,1 -4,2 -7,3l-1 0c-3,1 -6,2 -8,3 -2,1 -3,1 -4,2 -1,0 -2,1 -3,1 -5,2 -9,5 -13,7 -5,3 -10,6 -14,9 -2,1 -3,2 -4,3 -3,2 -6,4 -9,7 -2,1 -4,2 -5,4 -3,2 -6,4 -8,7 -2,1 -4,3 -5,4 -1,1 -2,2 -3,3 -1,1 -2,2 -3,3 -3,4 -7,7 -10,11 -1,1 -2,2 -3,3 -1,1 -1,2 -2,3 -2,2 -4,4 -6,7 -1,1 -2,2 -3,4 -1,1 -2,3 -3,4 -2,2 -3,3 -4,5 -1,1 -2,3 -3,4 -1,2 -3,4 -4,6 -1,2 -2,3 -3,4l-1 2c-3,4 -5,8 -8,12l0 1 -1 3c-2,3 -4,5 -5,8 -1,2 -2,3 -2,4 -1,2 -2,3 -3,5 0,1 -1,2 -1,3 -2,4 -4,7 -5,11l-1 1 0 1c-2,4 -4,8 -5,13l-1 2c-1,2 -1,3 -2,5 -1,2 -1,4 -2,6 -1,2 -1,4 -2,5 0,2 -1,4 -2,6 0,1 0,3 -1,4 0,2 -1,4 -1,6 -1,3 -2,5 -2,8l-1 2c0,2 0,4 -1,5 0,4 -1,8 -2,12 0,1 0,2 0,3 0,2 -1,5 -1,7 0,2 0,3 0,5 -1,5 -1,11 -1,16 0,28 6,51 17,68 7,10 15,18 25,24l38 22c-25,-15 -41,-47 -41,-92 0,-5 0,-10 0,-15 1,-2 1,-4 1,-5z"/>
  <path class="fil2" d="M2062 606c79,-46 143,-9 144,81 0,91 -64,202 -143,247 -79,46 -143,9 -143,-82 0,-90 63,-201 142,-246z"/>
  <path class="fil7" d="M2066 706c24,-13 44,-8 52,10l-106 106c-2,-5 -3,-11 -3,-18 0,-36 26,-80 57,-98z"/>
  <path class="fil7" d="M2122 728c1,3 1,7 1,11 0,36 -25,80 -57,98 -21,12 -39,9 -49,-5l105 -104z"/>
  <g id="_1391682798480">
   <g>
    <g>
     <path class="fil16" d="M567 1577l26 -36 -29 15 0 -32 14 -7 -25 -9 -24 34 12 -6 0 38c0,12 2,16 12,11l14 -8z"/>
     <path class="fil16" d="M644 1460l-25 36 28 -15 0 32 -13 7 25 9 24 -35 -13 7 0 -38c0,-12 -2,-16 -12,-11l-14 8z"/>
    </g>
    <g>
     <path class="fil16" d="M644 1537l-23 -14 0 29 -31 16 0 -13 -23 37 22 12 0 -12 38 -20c12,-7 17,-11 17,-22l0 -13z"/>
     <path class="fil16" d="M567 1500l23 14 0 -29 32 -16 0 13 22 -37 -22 -12 0 12 -38 20c-11,6 -17,11 -17,21l0 14z"/>
    </g>
   </g>
   <g>
    <path class="fil16" d="M465 1522c-3,7 -6,8 -8,31 -2,24 11,39 11,39 0,0 -1,-9 6,-22 6,-12 20,-32 26,-44 6,-12 8,-24 8,-24l0 0c-6,6 -12,10 -19,14 -9,5 -17,6 -24,6z"/>
    <path class="fil16" d="M521 1454c0,18 -14,40 -32,49 -18,10 -33,3 -33,-15 0,-18 15,-40 33,-49 18,-10 32,-3 32,15z"/>
    <path class="fil16" d="M526 1424c0,0 24,-31 49,-47 25,-17 61,-30 61,-30 0,0 -17,11 -28,23 -11,11 -19,26 -32,44 -13,18 -22,30 -31,39 -5,6 -10,9 -13,11 2,-6 3,-12 3,-17 0,-10 -4,-18 -9,-23l0 0z"/>
    <path class="fil16" d="M537 1697c5,0 5,3 27,-6 22,-9 45,-35 45,-35 0,0 -11,7 -19,5 -9,-3 -22,-9 -31,-11 -8,-1 -20,3 -20,3l0 0c3,4 4,10 4,17 0,8 -2,18 -6,27z"/>
    <path class="fil16" d="M498 1661c18,-9 33,-2 33,16 0,17 -15,39 -33,49 -18,9 -32,2 -32,-15 0,-18 14,-40 32,-50z"/>
    <path class="fil16" d="M471 1671c0,0 -18,-15 -21,-38 -4,-24 2,-62 2,-62 0,0 1,16 8,24 6,7 16,10 27,17 12,7 19,12 23,19 3,4 4,9 4,11 -5,1 -10,3 -16,6 -10,5 -19,13 -27,23l0 0z"/>
    <path class="fil16" d="M746 1515c3,-7 6,-8 9,-32 2,-23 -12,-39 -12,-39 0,0 2,10 -5,22 -7,13 -20,33 -26,45 -7,12 -8,24 -8,24l0 0c6,-6 12,-11 19,-14 8,-5 16,-7 23,-6z"/>
    <path class="fil16" d="M690 1583c0,-18 15,-40 33,-50 18,-9 32,-2 32,16 0,18 -14,40 -32,49 -18,9 -33,3 -33,-15z"/>
    <path class="fil16" d="M686 1612c0,0 -25,31 -50,48 -25,17 -60,29 -60,29 0,0 17,-10 28,-22 10,-12 19,-26 32,-44 12,-18 21,-30 30,-39 6,-6 11,-9 14,-11 -2,6 -3,11 -3,17 0,10 3,18 9,22l0 0z"/>
    <path class="fil16" d="M675 1340c-5,0 -5,-3 -27,6 -22,9 -45,35 -45,35 0,0 10,-7 19,-5 9,2 22,9 30,10 9,2 20,-2 20,-2l0 0c-2,-5 -4,-10 -4,-17 0,-9 3,-18 7,-27z"/>
    <path class="fil16" d="M713 1376c-18,9 -32,2 -32,-16 0,-18 14,-40 32,-49 18,-10 33,-3 33,15 0,18 -15,40 -33,50z"/>
    <path class="fil16" d="M741 1366c0,0 17,15 21,38 3,23 -3,62 -3,62 0,0 -1,-16 -7,-24 -6,-7 -16,-11 -27,-17 -12,-7 -19,-12 -24,-19 -2,-4 -3,-9 -3,-12 5,0 10,-2 15,-5 11,-5 20,-14 28,-23l0 0z"/>
   </g>
  </g>
  <path class="fil17" d="M3783 819l-1 382c0,15 -16,24 -29,16l-236 -136c-8,-5 -20,-3 -25,5l-6 8c-9,12 -28,10 -34,-5l-8 -19 -12 -34c-2,-4 -5,-7 -9,-10l-199 -113c-6,-4 -9,-10 -9,-17l1 -382c0,-15 16,-24 29,-17l528 305c6,4 10,10 10,17z"/>
  <g id="_1391682805744">
   <path class="fil18" d="M3342 882c3,2 6,4 8,7 1,3 2,7 1,11 0,4 -1,6 -2,7 -2,2 -5,1 -9,-1l-14 -7 0 3c0,1 0,3 1,4 0,2 1,3 3,4l19 10 -1 7 -18 -9c-2,-1 -4,-2 -5,-4 -1,-1 -2,-3 -3,-4 -1,-2 -2,-4 -2,-6 0,-1 0,-3 0,-5l0 -14c1,-2 1,-4 1,-5 1,-2 1,-3 2,-4 1,0 3,-1 4,-1 1,0 3,1 5,2l10 5zm-16 10l15 8c1,1 2,1 3,0 1,0 1,-1 1,-3 0,-1 0,-3 0,-4 -1,-1 -2,-2 -4,-3l-10 -5c-1,-1 -2,-1 -3,0 -1,0 -1,1 -2,3l0 4zm55 -2c2,2 4,3 5,5 2,1 3,3 4,5 1,2 2,4 2,6 0,2 1,5 0,7 0,2 0,3 -1,5 0,2 -1,3 -2,4 -1,1 -2,2 -4,2 -2,0 -4,0 -6,-2l-12 -6c-1,0 -1,0 -1,1l-1 19 -7 -4 1 -20c0,-3 1,-5 2,-6 1,-1 2,-1 5,1l14 7c1,0 1,1 2,1 1,-1 1,-1 2,-1 0,-1 1,-1 1,-2 0,-1 0,-2 0,-3 1,-1 0,-3 -1,-5 0,-2 -2,-3 -4,-4l-20 -11 1 -9 20 10zm36 31c4,2 7,5 9,10 2,5 3,10 3,17 0,7 -2,12 -4,14 -3,2 -6,2 -10,0l-7 -4c-4,-2 -7,-5 -9,-10 -3,-4 -3,-10 -3,-17 0,-7 2,-11 4,-14 3,-2 6,-2 10,0l7 4zm-7 5c-2,-2 -4,-2 -6,0 -1,1 -2,4 -2,8 0,5 0,8 1,11 2,2 3,4 6,6l5 2c3,2 5,2 6,1 2,-2 3,-5 3,-9 0,-5 0,-8 -2,-11 -1,-2 -3,-4 -5,-6l-6 -2zm53 19l0 8 -17 -9c-2,-1 -3,-1 -4,-1 0,1 -1,2 -1,3 0,2 1,3 1,4 1,1 2,2 3,3l8 4c2,1 4,2 5,3 1,2 2,3 3,5 1,1 1,3 1,4 1,2 1,3 1,5 0,2 -1,3 -1,5 -1,1 -1,2 -2,3 -1,0 -2,1 -3,1 -2,-1 -3,-1 -5,-2l-18 -9 1 -8 17 9c2,1 3,1 4,1 0,-1 1,-2 1,-3 0,-2 0,-3 -1,-4 -1,-1 -2,-2 -3,-3l-8 -4c-2,-1 -4,-2 -5,-4 -1,-1 -2,-2 -3,-4 -1,-1 -1,-3 -1,-5 -1,-1 -1,-3 -1,-4 1,-4 1,-7 3,-8 2,-1 4,-1 8,1l17 9zm41 21l-22 47 -7 -3 7 -15c-2,-1 -3,-2 -4,-3 0,-1 -1,-3 -1,-5l-9 -40 7 4 7 35c0,1 1,1 1,2 0,0 1,0 1,1l1 0 12 -27 7 4zm25 13c2,1 3,2 5,3 1,2 2,3 3,5 1,1 1,3 1,5 1,2 1,4 1,6l-1 19c0,1 -1,3 -1,4 0,1 0,1 -1,2 0,0 -1,0 -2,0 -1,0 -2,0 -3,-1l-14 -8c-4,-1 -7,-4 -8,-7 -2,-3 -2,-6 -2,-10 0,-2 0,-4 1,-5 0,-1 1,-2 2,-3 1,0 2,-1 3,0 1,0 3,0 5,1l14 8 1 -3c0,-2 -1,-3 -1,-5 -1,-1 -2,-3 -4,-3l-18 -10 0 -8 19 10zm1 34c1,1 2,0 2,-1l0 -8 -14 -7c-2,-1 -3,-1 -4,-1 -1,1 -1,2 -1,3 0,2 0,3 1,4 0,2 2,3 3,4l13 6zm35 -15c5,2 9,6 11,10 3,5 4,10 4,15l-2 23 -6 -3 1 -23c1,-3 0,-6 -1,-8 -2,-3 -4,-5 -7,-7l-10 -5c-1,0 -1,0 -1,1l-2 32 -6 -3 2 -35c0,-2 0,-4 1,-4 1,-1 2,-1 3,0l13 7zm57 11l-2 41c-1,6 -2,10 -4,11 -2,2 -5,2 -9,0l-8 -4c-4,-2 -7,-5 -10,-10 -2,-5 -3,-10 -2,-17 0,-7 1,-12 4,-14 3,-2 6,-2 10,0l14 7 1 -18 6 4zm-16 44c2,1 4,1 5,0 2,-1 2,-3 2,-7l1 -15 -13 -7c-2,-1 -4,-1 -6,0 -1,2 -2,4 -2,9 0,4 0,8 1,10 1,3 3,5 6,6l6 4zm30 -19l-2 25c0,2 1,4 2,7 1,2 3,4 5,5l5 2c3,2 5,2 6,1 2,-1 2,-3 2,-5l2 -25 6 4 -2 24c0,3 0,5 -1,6 0,2 -1,3 -3,4 -1,1 -2,1 -4,1 -2,0 -4,0 -6,-1l-5 -3c-3,-2 -5,-3 -6,-5 -2,-1 -3,-3 -4,-5 -1,-2 -2,-4 -2,-6 -1,-3 -1,-5 -1,-7l1 -25 7 3z"/>
   <g>
    <path class="fil18" d="M3565 754l24 13c23,12 38,32 45,61 2,9 3,18 2,27 -1,21 -10,34 -27,39 -6,2 -13,0 -20,-3l-162 -84c-10,-5 -14,-14 -13,-27 1,-13 7,-16 21,-9l154 79c9,3 14,-1 14,-13l0 0c1,-15 -5,-25 -17,-31l-22 -12c-10,-5 -15,-15 -14,-30 1,-10 6,-13 15,-10z"/>
    <path class="fil18" d="M3429 685c1,1 2,1 3,2 4,1 6,2 8,3l16 9c9,6 13,13 13,21 0,1 0,2 0,4 0,15 -6,20 -16,14l-18 -9c-16,-8 -28,-4 -35,14 -2,5 -3,10 -3,17l-1 11c-1,23 5,42 19,57 5,6 11,11 20,16l137 71c7,4 12,10 15,18 1,5 1,10 1,13 -1,11 -7,14 -17,9l-143 -73 -3 -2c-10,-5 -20,-13 -31,-24 -4,-5 -11,-17 -19,-36 -9,-25 -13,-49 -12,-72 2,-46 29,-82 66,-63z"/>
    <path class="fil18" d="M3569 913l46 24c7,4 12,10 15,18 1,5 1,10 0,13 0,11 -6,14 -16,9l-47 -24 2 -40z"/>
    <polygon class="fil18" points="3457,855 3526,891 3524,931 3455,896 "/>
    <polygon class="fil16" points="3436,688 3581,764 3579,802 3435,729 "/>
   </g>
  </g>
 </g>
</svg>
